<?xml version="1.0" encoding="UTF-8" standalone="no"?>
<!-- Created with Inkscape (http://www.inkscape.org/) -->

<svg
   xmlns:dc="http://purl.org/dc/elements/1.1/"
   xmlns:cc="http://creativecommons.org/ns#"
   xmlns:rdf="http://www.w3.org/1999/02/22-rdf-syntax-ns#"
   xmlns:svg="http://www.w3.org/2000/svg"
   xmlns="http://www.w3.org/2000/svg"
   xmlns:sodipodi="http://sodipodi.sourceforge.net/DTD/sodipodi-0.dtd"
   xmlns:inkscape="http://www.inkscape.org/namespaces/inkscape"
   version="1.2"
   width="16"
   height="16"
   id="svg2"
   inkscape:version="0.48.2 r9819"
   sodipodi:docname="httpquery.svg">
  <sodipodi:namedview
     pagecolor="#ffffff"
     bordercolor="#666666"
     borderopacity="1"
     objecttolerance="10"
     gridtolerance="10"
     guidetolerance="10"
     inkscape:pageopacity="0"
     inkscape:pageshadow="2"
     inkscape:window-width="928"
     inkscape:window-height="540"
     id="namedview22"
     showgrid="false"
     inkscape:zoom="14.352473"
     inkscape:cx="18.865283"
     inkscape:cy="6.1413538"
     inkscape:window-x="0"
     inkscape:window-y="0"
     inkscape:window-maximized="0"
     inkscape:current-layer="layer1" />
  <defs
     id="defs4" />
  <metadata
     id="metadata7">
    <rdf:RDF>
      <cc:Work
         rdf:about="">
        <dc:format>image/svg+xml</dc:format>
        <dc:type
           rdf:resource="http://purl.org/dc/dcmitype/StillImage" />
        <dc:title />
      </cc:Work>
    </rdf:RDF>
  </metadata>
  <g
     id="layer1"
     transform="translate(0,-1036.3622)">
    <g
       style="font-size:40px;font-style:normal;font-weight:normal;line-height:125%;letter-spacing:0px;word-spacing:0px;fill:#000000;fill-opacity:1;stroke:none;font-family:Sans"
       id="flowRoot2985" />
    <g
       style="font-size:40px;font-style:normal;font-weight:normal;line-height:125%;letter-spacing:0px;word-spacing:0px;fill:#000000;fill-opacity:1;stroke:none;font-family:Sans"
       id="flowRoot2993" />
    <g
       transform="matrix(0.10720455,0,0,0.10249353,-8.0980699,1023.3744)"
       style="font-size:144px;font-style:normal;font-weight:bold;line-height:125%;letter-spacing:0px;word-spacing:0px;fill:#000000;fill-opacity:1;stroke:none;font-family:Sans;-inkscape-font-specification:Sans Bold"
       id="flowRoot3001">
      <path
         d="m 184.88281,233.90071 c 5.10928,3.65626 10.66396,6.5625 16.66406,8.71875 l -7.66406,14.69531 c -3.14072,-0.93751 -6.21103,-2.22657 -9.21094,-3.86719 -0.65634,-0.32813 -5.27352,-3.375 -13.85156,-9.14062 -6.75007,2.95312 -14.22663,4.42968 -22.42969,4.42968 -15.84379,0 -28.25393,-4.66406 -37.23046,-13.99218 -8.97658,-9.32811 -13.464854,-22.42966 -13.464848,-39.30469 -6e-6,-16.82806 4.499988,-29.91789 13.499998,-39.26953 8.99997,-9.35147 21.2109,-14.02724 36.63281,-14.02735 15.28118,1.1e-4 27.39836,4.67588 36.35157,14.02735 8.95302,9.35164 13.42958,22.44147 13.42968,39.26953 -1e-4,8.90629 -1.24229,16.73441 -3.72656,23.48437 -1.8751,5.15628 -4.8751,10.14846 -9,14.97657 z m -16.73437,-11.74219 c 2.67179,-3.1406 4.6757,-6.93747 6.01172,-11.39063 1.33585,-4.45308 2.00382,-9.56245 2.0039,-15.32812 -8e-5,-11.90619 -2.62508,-20.80071 -7.875,-26.6836 -5.25007,-5.88272 -12.11725,-8.82413 -20.60156,-8.82421 -8.48442,8e-5 -15.36332,2.9532 -20.63672,8.85937 -5.27347,5.90632 -7.91018,14.78913 -7.91015,26.64844 -3e-5,12.04691 2.63668,21.05862 7.91015,27.03515 5.2734,5.97659 11.94136,8.96486 20.00391,8.96485 2.99994,1e-5 5.83587,-0.49217 8.50781,-1.47656 -4.21881,-2.76561 -8.50787,-4.92186 -12.86719,-6.46875 l 5.83594,-11.88282 c 6.84369,2.34379 13.38274,5.85941 19.61719,10.54688 z"
         id="path3002"
         inkscape:connector-curvature="0" />
    </g>
    <g
       style="font-size:40px;font-style:normal;font-weight:normal;line-height:125%;letter-spacing:0px;word-spacing:0px;fill:#000000;fill-opacity:1;stroke:none;font-family:Sans"
       id="flowRoot3009" />
  </g>
</svg>
